<svg xmlns="http://www.w3.org/2000/svg" width="1080" height="460" viewBox="0 0 1080 460" font-family="system-ui, -apple-system, Segoe UI, sans-serif">
  <rect width="1080" height="460" fill="#FFFFFF" />
  <text x="64" y="28" font-size="17" font-weight="600" fill="#333333">SparsePostQuantumRatchet-verify — verification burn-up</text>
  <text x="64" y="47" font-size="11" fill="#777777">SparsePostQuantumRatchet-verify · 4 samples · 1 gap(s) omitted · source: progress.jsonl</text>
  <line x1="64" y1="364.0" x2="770" y2="364.0" stroke="#E4E4E422" />
  <text x="56" y="368.0" font-size="10" text-anchor="end" fill="#777777">0</text>
  <line x1="64" y1="304.0" x2="770" y2="304.0" stroke="#E4E4E422" />
  <text x="56" y="308.0" font-size="10" text-anchor="end" fill="#777777">80</text>
  <line x1="64" y1="244.0" x2="770" y2="244.0" stroke="#E4E4E422" />
  <text x="56" y="248.0" font-size="10" text-anchor="end" fill="#777777">160</text>
  <line x1="64" y1="184.0" x2="770" y2="184.0" stroke="#E4E4E422" />
  <text x="56" y="188.0" font-size="10" text-anchor="end" fill="#777777">240</text>
  <line x1="64" y1="124.0" x2="770" y2="124.0" stroke="#E4E4E422" />
  <text x="56" y="128.0" font-size="10" text-anchor="end" fill="#777777">320</text>
  <line x1="64" y1="64.0" x2="770" y2="64.0" stroke="#E4E4E422" />
  <text x="56" y="68.0" font-size="10" text-anchor="end" fill="#777777">400</text>
  <line x1="64" y1="64" x2="64" y2="364" stroke="#999999" />
  <line x1="64" y1="364" x2="770" y2="364" stroke="#999999" />
  <text x="16" y="214.0" font-size="11" fill="#777777" text-anchor="middle" transform="rotate(-90 16 214.0)">atom count</text>
  <text x="64.0" y="376.0" font-size="10" fill="#777777" text-anchor="end" transform="rotate(-40 64.0 376.0)">2026-03-20</text>
  <text x="299.3" y="376.0" font-size="10" fill="#777777" text-anchor="end" transform="rotate(-40 299.3 376.0)">2026-04-17</text>
  <text x="534.7" y="376.0" font-size="10" fill="#777777" text-anchor="end" transform="rotate(-40 534.7 376.0)">2026-05-22</text>
  <text x="770.0" y="376.0" font-size="10" fill="#777777" text-anchor="end" transform="rotate(-40 770.0 376.0)">2026-07-17</text>
  <polygon points="64.0,121.8 299.3,113.5 534.7,113.5 770.0,113.5 770.0,364.0 64.0,364.0" fill="#888899" fill-opacity="0.08" stroke="none" />
  <polygon points="64.0,364.0 299.3,358.0 534.7,349.8 770.0,318.2 770.0,364.0 64.0,364.0" fill="#7B64B8" fill-opacity="0.12" stroke="none" />
  <polygon points="64.0,364.0 299.3,358.0 534.7,349.8 770.0,318.2 770.0,364.0 64.0,364.0" fill="#1F8A65" fill-opacity="0.16" stroke="none" />
  <polyline points="64.0,121.8 299.3,113.5 534.7,113.5 770.0,113.5" fill="none" stroke="#888899" stroke-width="2.0" stroke-linejoin="round" />
  <circle cx="64.0" cy="121.8" r="2.6" fill="#888899" />
  <circle cx="299.3" cy="113.5" r="2.6" fill="#888899" />
  <circle cx="534.7" cy="113.5" r="2.6" fill="#888899" />
  <circle cx="770.0" cy="113.5" r="2.6" fill="#888899" />
  <polyline points="64.0,364.0 299.3,358.0 534.7,349.8 770.0,318.2" fill="none" stroke="#7B64B8" stroke-width="2.0" stroke-linejoin="round" />
  <circle cx="64.0" cy="364.0" r="2.6" fill="#7B64B8" />
  <circle cx="299.3" cy="358.0" r="2.6" fill="#7B64B8" />
  <circle cx="534.7" cy="349.8" r="2.6" fill="#7B64B8" />
  <circle cx="770.0" cy="318.2" r="2.6" fill="#7B64B8" />
  <polyline points="64.0,364.0 299.3,358.0 534.7,349.8 770.0,318.2" fill="none" stroke="#1F8A65" stroke-width="2.0" stroke-linejoin="round" />
  <circle cx="64.0" cy="364.0" r="2.6" fill="#1F8A65" />
  <circle cx="299.3" cy="358.0" r="2.6" fill="#1F8A65" />
  <circle cx="534.7" cy="349.8" r="2.6" fill="#1F8A65" />
  <circle cx="770.0" cy="318.2" r="2.6" fill="#1F8A65" />
  <polyline points="64.0,364.0 299.3,202.0 534.7,202.0 770.0,202.0" fill="none" stroke="#2E79B5" stroke-width="2.0" stroke-linejoin="round" />
  <circle cx="64.0" cy="364.0" r="2.6" fill="#2E79B5" />
  <circle cx="299.3" cy="202.0" r="2.6" fill="#2E79B5" />
  <circle cx="534.7" cy="202.0" r="2.6" fill="#2E79B5" />
  <circle cx="770.0" cy="202.0" r="2.6" fill="#2E79B5" />
  <polyline points="64.0,364.0 299.3,208.0 534.7,216.3 770.0,247.8" fill="none" stroke="#E8833A" stroke-width="2.0" stroke-linejoin="round" />
  <circle cx="64.0" cy="364.0" r="2.6" fill="#E8833A" />
  <circle cx="299.3" cy="208.0" r="2.6" fill="#E8833A" />
  <circle cx="534.7" cy="216.3" r="2.6" fill="#E8833A" />
  <circle cx="770.0" cy="247.8" r="2.6" fill="#E8833A" />
  <polyline points="64.0,121.8 299.3,275.5 534.7,275.5 770.0,275.5" fill="none" stroke="#B08D57" stroke-width="2.0" stroke-linejoin="round" />
  <circle cx="64.0" cy="121.8" r="2.6" fill="#B08D57" />
  <circle cx="299.3" cy="275.5" r="2.6" fill="#B08D57" />
  <circle cx="534.7" cy="275.5" r="2.6" fill="#B08D57" />
  <circle cx="770.0" cy="275.5" r="2.6" fill="#B08D57" />
  <rect x="786" y="59" width="12" height="12" rx="2" fill="#888899" />
  <text x="804" y="69" font-size="11" fill="#333333">tracked (ceiling)</text>
  <rect x="786" y="79" width="12" height="12" rx="2" fill="#7B64B8" />
  <text x="804" y="89" font-size="11" fill="#333333">verified + transitively-verified + trusted</text>
  <rect x="786" y="99" width="12" height="12" rx="2" fill="#2E79B5" />
  <text x="804" y="109" font-size="11" fill="#333333">translated (Aeneas)</text>
  <rect x="786" y="119" width="12" height="12" rx="2" fill="#1F8A65" />
  <text x="804" y="129" font-size="11" fill="#333333">verified + transitively-verified</text>
  <rect x="786" y="139" width="12" height="12" rx="2" fill="#E8833A" />
  <text x="804" y="149" font-size="11" fill="#333333">in-progress (sorry/assume)</text>
  <rect x="786" y="159" width="12" height="12" rx="2" fill="#B08D57" />
  <text x="804" y="169" font-size="11" fill="#333333">unspecified (no spec)</text>
</svg>
