<svg xmlns="http://www.w3.org/2000/svg" width="1156" height="460" viewBox="0 0 1156 460" font-family="system-ui, -apple-system, Segoe UI, sans-serif">
  <rect width="1156" height="460" fill="#FFFFFF" />
  <text x="64" y="28" font-size="17" font-weight="600" fill="#333333">KeyedVerificationAnonymousCredential-model</text>
  <text x="64" y="47" font-size="11" fill="#777777">KeyedVerificationAnonymousCredential-model · 4 samples · source: progress.jsonl · unit: declaration · proof status: probe-lean</text>
  <line x1="64" y1="364.0" x2="770" y2="364.0" stroke="#E4E4E422" />
  <text x="56" y="368.0" font-size="10" text-anchor="end" fill="#777777">0</text>
  <line x1="64" y1="304.0" x2="770" y2="304.0" stroke="#E4E4E422" />
  <text x="56" y="308.0" font-size="10" text-anchor="end" fill="#777777">40</text>
  <line x1="64" y1="244.0" x2="770" y2="244.0" stroke="#E4E4E422" />
  <text x="56" y="248.0" font-size="10" text-anchor="end" fill="#777777">80</text>
  <line x1="64" y1="184.0" x2="770" y2="184.0" stroke="#E4E4E422" />
  <text x="56" y="188.0" font-size="10" text-anchor="end" fill="#777777">120</text>
  <line x1="64" y1="124.0" x2="770" y2="124.0" stroke="#E4E4E422" />
  <text x="56" y="128.0" font-size="10" text-anchor="end" fill="#777777">160</text>
  <line x1="64" y1="64.0" x2="770" y2="64.0" stroke="#E4E4E422" />
  <text x="56" y="68.0" font-size="10" text-anchor="end" fill="#777777">200</text>
  <line x1="64" y1="64" x2="64" y2="364" stroke="#999999" />
  <line x1="64" y1="364" x2="770" y2="364" stroke="#999999" />
  <text x="16" y="214.0" font-size="11" fill="#777777" text-anchor="middle" transform="rotate(-90 16 214.0)">declarations</text>
  <text x="64.0" y="376.0" font-size="10" fill="#777777" text-anchor="end" transform="rotate(-40 64.0 376.0)">2026-05-20</text>
  <text x="299.3" y="376.0" font-size="10" fill="#777777" text-anchor="end" transform="rotate(-40 299.3 376.0)">2026-06-17</text>
  <text x="534.7" y="376.0" font-size="10" fill="#777777" text-anchor="end" transform="rotate(-40 534.7 376.0)">2026-07-15</text>
  <text x="770.0" y="376.0" font-size="10" fill="#777777" text-anchor="end" transform="rotate(-40 770.0 376.0)">2026-07-29</text>
  <polygon points="64.0,350.5 299.3,233.5 534.7,182.5 770.0,103.0 770.0,364.0 64.0,364.0" fill="#888899" fill-opacity="0.08" stroke="none" />
  <polygon points="64.0,350.5 299.3,233.5 534.7,182.5 770.0,103.0 770.0,364.0 64.0,364.0" fill="#1F8A65" fill-opacity="0.14" stroke="none" />
  <polyline points="64.0,350.5 299.3,233.5 534.7,182.5 770.0,103.0" fill="none" stroke="#888899" stroke-width="2.0" stroke-linejoin="round" />
  <circle cx="64.0" cy="350.5" r="2.6" fill="#888899" />
  <circle cx="299.3" cy="233.5" r="2.6" fill="#888899" />
  <circle cx="534.7" cy="182.5" r="2.6" fill="#888899" />
  <circle cx="770.0" cy="103.0" r="2.6" fill="#888899" />
  <polyline points="64.0,350.5 299.3,233.5 534.7,182.5 770.0,103.0" fill="none" stroke="#1F8A65" stroke-width="2.0" stroke-linejoin="round" />
  <circle cx="64.0" cy="350.5" r="2.6" fill="#1F8A65" />
  <circle cx="299.3" cy="233.5" r="2.6" fill="#1F8A65" />
  <circle cx="534.7" cy="182.5" r="2.6" fill="#1F8A65" />
  <circle cx="770.0" cy="103.0" r="2.6" fill="#1F8A65" />
  <polyline points="64.0,364.0 299.3,364.0 534.7,364.0 770.0,364.0" fill="none" stroke="#E8833A" stroke-width="2.0" stroke-linejoin="round" />
  <circle cx="64.0" cy="364.0" r="2.6" fill="#E8833A" />
  <circle cx="299.3" cy="364.0" r="2.6" fill="#E8833A" />
  <circle cx="534.7" cy="364.0" r="2.6" fill="#E8833A" />
  <circle cx="770.0" cy="364.0" r="2.6" fill="#E8833A" />
  <rect x="786" y="59" width="12" height="12" rx="2" fill="#888899" />
  <text x="804" y="69" font-size="11" fill="#333333">total (ceiling)</text>
  <rect x="786" y="79" width="12" height="12" rx="2" fill="#1F8A65" />
  <text x="804" y="89" font-size="11" fill="#333333">completed (verified + transitively-verified + trusted)</text>
  <rect x="786" y="99" width="12" height="12" rx="2" fill="#E8833A" />
  <text x="804" y="109" font-size="11" fill="#333333">in-progress (sorry/assume)</text>
</svg>
